<svg id="Layer_1" data-name="Layer 1" xmlns="http://www.w3.org/2000/svg" viewBox="0 0 20 20"><defs><style>.cls-1{fill:#333;}</style></defs><title>dribbble</title><path class="cls-1" d="M10,1.13A8.87,8.87,0,1,0,18.82,10,8.87,8.87,0,0,0,10,1.13Zm7.3,8.46A16,16,0,0,0,12,9.53c-.18-.41-.37-.83-.57-1.24a10.46,10.46,0,0,0,4.1-3A7.22,7.22,0,0,1,17.25,9.59ZM14.42,4.21a9.16,9.16,0,0,1-3.69,2.72,33.35,33.35,0,0,0-2.58-4A7.16,7.16,0,0,1,10,2.68,7.28,7.28,0,0,1,14.42,4.21ZM6.64,3.47a32.86,32.86,0,0,1,2.62,4,23.58,23.58,0,0,1-6.42.82A7.35,7.35,0,0,1,6.64,3.47ZM2.63,10V9.81a24.57,24.57,0,0,0,7.36-1c.17.35.33.71.49,1.06a11.41,11.41,0,0,0-6.16,4.79A7.27,7.27,0,0,1,2.63,10Zm2.82,5.77a10,10,0,0,1,5.62-4.45,29.4,29.4,0,0,1,1.51,5.51A7.28,7.28,0,0,1,5.45,15.77Zm8.57.32A31.11,31.11,0,0,0,12.6,11a14.94,14.94,0,0,1,4.58.15A7.37,7.37,0,0,1,14,16.09Z"/></svg>